<?xml version="1.0" encoding="UTF-8" standalone="no"?>
<!DOCTYPE svg PUBLIC "-//W3C//DTD SVG 1.1//EN" "http://www.w3.org/Graphics/SVG/1.1/DTD/svg11.dtd">
<svg width="100%" height="100%" viewBox="0 0 2000 1200" version="1.1" xmlns="http://www.w3.org/2000/svg" xmlns:xlink="http://www.w3.org/1999/xlink" xml:space="preserve" xmlns:serif="http://www.serif.com/" style="fill-rule:evenodd;clip-rule:evenodd;stroke-linejoin:round;stroke-miterlimit:2;">
    <path d="M1571.5,0L1571.4,0.1L0,483.9L510.8,0L1571.5,0Z" style="fill:url(#_Linear1);fill-rule:nonzero;"/>
    <path d="M1571.4,0.1L856.6,779.7L0,483.9L1571.4,0.1Z" style="fill:rgb(254,254,254);fill-rule:nonzero;"/>
    <path d="M2000,0L2000,53.7L1571.7,0L2000,0Z" style="fill:rgb(253,253,253);fill-rule:nonzero;"/>
    <path d="M2000,53.7L2000,524.8L1571.7,0L2000,53.7Z" style="fill:rgb(241,241,241);fill-rule:nonzero;"/>
    <path d="M2000,524.8L856.6,779.7L1571.4,0.1L1571.7,0L2000,524.8Z" style="fill:url(#_Linear2);fill-rule:nonzero;"/>
    <path d="M2000,524.8L2000,1068.2L858,780.1L856.6,779.7L2000,524.8Z" style="fill:rgb(248,248,248);fill-rule:nonzero;"/>
    <path d="M552.8,1200L856.6,779.7L0,483.9L364.9,1200L552.8,1200Z" style="fill:url(#_Linear3);fill-rule:nonzero;"/>
    <path d="M0,0.1L0,483.9L510.8,0L0,0.1Z" style="fill:rgb(250,250,250);fill-rule:nonzero;"/>
    <path d="M2000,1200L2000,1068.2L858,780.1L856.6,779.7L552.8,1200L2000,1200Z" style="fill:rgb(237,237,237);fill-rule:nonzero;"/>
    <path d="M364.9,1200L0,483.9L0,1200L364.9,1200Z" style="fill:rgb(241,241,241);fill-rule:nonzero;"/>
    <g transform="matrix(0.0985904,0,0,0.0987294,33.766,26.4955)">
        <rect x="3.23" y="2.62" width="1020.88" height="1019.44" style="fill:rgb(96,25,134);fill-opacity:0.27;"/>
    </g>
    <g transform="matrix(0.0982895,0,0,0.0982895,34.0926,26.7542)">
        <path d="M422.881,508.08L423.579,765.859L596.22,765.859L596.22,467.588L465.29,467.588L422.881,508.08ZM458.384,522.768L458.061,732.122L563.798,732.122L563.798,499.01L483.152,499.01L458.384,522.768ZM251.975,299.833L252.939,426.911L555.736,426.911L555.736,254.203L297.379,254.203L251.975,299.833ZM599.355,295.164L598.316,425.279L726.887,425.279L767.184,385.943L767.184,255.742L636.96,255.742L599.355,295.164ZM655.384,289.164L628.595,311.51L628.595,391.628L711.447,391.628L734.707,370.932L734.707,289.164L655.384,289.164ZM287.327,312.206L286.96,390.044L522.887,390.044L522.887,291.044L310.246,291.044L287.327,312.206Z" style="fill:white;fill-opacity:0.49;"/>
    </g>
    <g transform="matrix(4.58234,0,0,3.92371,-5351.35,-2426.56)">
        <g transform="matrix(0.113169,0,0,0.0160001,1480.36,896.345)">
            <rect x="3.23" y="2.62" width="1020.88" height="1019.44" style="fill:rgb(118,118,118);"/>
        </g>
        <g transform="matrix(0.0136811,0,0,0.0160001,1480.68,896.345)">
            <rect x="3.23" y="2.62" width="1020.88" height="1019.44" style="fill:rgb(96,25,134);"/>
        </g>
        <g transform="matrix(0.0136393,0,0,0.0159288,1480.72,896.387)">
            <path d="M422.881,508.08L423.579,765.859L596.22,765.859L596.22,467.588L465.29,467.588L422.881,508.08ZM458.384,522.768L458.061,732.122L563.798,732.122L563.798,499.01L483.152,499.01L458.384,522.768ZM251.975,299.833L252.939,426.911L555.736,426.911L555.736,254.203L297.379,254.203L251.975,299.833ZM599.355,295.164L598.316,425.279L726.887,425.279L767.184,385.943L767.184,255.742L636.96,255.742L599.355,295.164ZM655.384,289.164L628.595,311.51L628.595,391.628L711.447,391.628L734.707,370.932L734.707,289.164L655.384,289.164ZM287.327,312.206L286.96,390.044L522.887,390.044L522.887,291.044L310.246,291.044L287.327,312.206Z" style="fill:white;"/>
        </g>
        <path d="M1504.76,900.126L1504.76,901.151L1501.86,901.151L1501.86,908.733L1500.67,908.733L1500.67,901.151L1497.77,901.151L1497.77,900.126L1504.76,900.126Z" style="fill:rgb(238,238,238);fill-rule:nonzero;"/>
        <path d="M1505.93,900.126L1512.21,900.126L1512.21,901.18L1507.07,901.18L1507.07,903.794L1511.82,903.794L1511.82,904.79L1507.07,904.79L1507.07,907.708L1512.3,907.708L1512.3,908.733L1505.93,908.733L1505.93,900.126Z" style="fill:rgb(238,238,238);fill-rule:nonzero;"/>
        <path d="M1518.24,905.206L1516.94,901.403L1515.55,905.206L1518.24,905.206ZM1516.33,900.126L1517.65,900.126L1520.77,908.733L1519.49,908.733L1518.62,906.155L1515.21,906.155L1514.28,908.733L1513.09,908.733L1516.33,900.126Z" style="fill:rgb(238,238,238);fill-rule:nonzero;"/>
        <path d="M1521.8,900.126L1523.47,900.126L1525.94,907.403L1528.4,900.126L1530.05,900.126L1530.05,908.733L1528.94,908.733L1528.94,903.653C1528.94,903.477 1528.95,903.186 1528.95,902.78C1528.96,902.374 1528.97,901.938 1528.97,901.473L1526.51,908.733L1525.36,908.733L1522.88,901.473L1522.88,901.737C1522.88,901.948 1522.89,902.269 1522.9,902.701C1522.91,903.132 1522.91,903.45 1522.91,903.653L1522.91,908.733L1521.8,908.733L1521.8,900.126Z" style="fill:rgb(238,238,238);fill-rule:nonzero;"/>
        <path d="M1532.59,905.956C1532.62,906.444 1532.73,906.84 1532.93,907.145C1533.32,907.715 1534,908.001 1534.98,908.001C1535.41,908.001 1535.81,907.938 1536.17,907.813C1536.87,907.571 1537.22,907.137 1537.22,906.512C1537.22,906.044 1537.07,905.71 1536.78,905.51C1536.48,905.315 1536.02,905.145 1535.38,905.001L1534.22,904.737C1533.45,904.565 1532.91,904.376 1532.6,904.169C1532.05,903.809 1531.78,903.272 1531.78,902.557C1531.78,901.784 1532.05,901.149 1532.58,900.653C1533.12,900.157 1533.87,899.909 1534.86,899.909C1535.76,899.909 1536.52,900.127 1537.15,900.562C1537.79,900.998 1538.1,901.694 1538.1,902.651L1537.01,902.651C1536.95,902.19 1536.82,901.837 1536.63,901.59C1536.28,901.141 1535.67,900.917 1534.82,900.917C1534.13,900.917 1533.64,901.061 1533.34,901.35C1533.04,901.639 1532.89,901.975 1532.89,902.358C1532.89,902.78 1533.06,903.089 1533.41,903.284C1533.64,903.409 1534.16,903.565 1534.98,903.753L1536.18,904.028C1536.77,904.161 1537.22,904.342 1537.53,904.573C1538.08,904.975 1538.35,905.559 1538.35,906.325C1538.35,907.278 1538.01,907.96 1537.31,908.37C1536.62,908.78 1535.81,908.985 1534.9,908.985C1533.83,908.985 1532.99,908.712 1532.38,908.165C1531.78,907.622 1531.48,906.885 1531.49,905.956L1532.59,905.956Z" style="fill:rgb(238,238,238);fill-rule:nonzero;"/>
        <path d="M1543.46,899.891C1544.55,899.891 1545.39,900.178 1545.99,900.753C1546.6,901.327 1546.93,901.979 1547,902.71L1545.86,902.71C1545.73,902.155 1545.47,901.715 1545.09,901.391C1544.7,901.067 1544.16,900.905 1543.47,900.905C1542.62,900.905 1541.94,901.203 1541.41,901.798C1540.89,902.394 1540.63,903.307 1540.63,904.538C1540.63,905.546 1540.87,906.363 1541.34,906.99C1541.81,907.617 1542.51,907.93 1543.44,907.93C1544.3,907.93 1544.96,907.6 1545.41,906.94C1545.65,906.592 1545.82,906.135 1545.94,905.569L1547.08,905.569C1546.98,906.475 1546.64,907.235 1546.07,907.848C1545.39,908.587 1544.46,908.956 1543.3,908.956C1542.3,908.956 1541.46,908.653 1540.79,908.047C1539.89,907.247 1539.44,906.01 1539.44,904.339C1539.44,903.069 1539.78,902.028 1540.45,901.215C1541.18,900.333 1542.18,899.891 1543.46,899.891Z" style="fill:rgb(238,238,238);fill-rule:nonzero;"/>
        <path d="M1552.21,899.891C1553.73,899.891 1554.86,900.38 1555.59,901.356C1556.16,902.118 1556.44,903.092 1556.44,904.28C1556.44,905.565 1556.12,906.633 1555.46,907.485C1554.7,908.485 1553.61,908.985 1552.19,908.985C1550.86,908.985 1549.82,908.547 1549.06,907.672C1548.39,906.829 1548.05,905.762 1548.05,904.473C1548.05,903.309 1548.34,902.313 1548.92,901.485C1549.66,900.422 1550.76,899.891 1552.21,899.891ZM1552.33,907.942C1553.36,907.942 1554.1,907.574 1554.56,906.838C1555.02,906.101 1555.25,905.255 1555.25,904.297C1555.25,903.286 1554.98,902.471 1554.45,901.854C1553.92,901.237 1553.2,900.928 1552.28,900.928C1551.39,900.928 1550.66,901.234 1550.1,901.845C1549.54,902.457 1549.26,903.358 1549.26,904.549C1549.26,905.503 1549.5,906.306 1549.98,906.961C1550.46,907.615 1551.25,907.942 1552.33,907.942Z" style="fill:rgb(238,238,238);fill-rule:nonzero;"/>
        <path d="M1561.13,907.737C1561.53,907.737 1561.85,907.696 1562.11,907.614C1562.56,907.462 1562.93,907.169 1563.22,906.735C1563.45,906.387 1563.62,905.942 1563.72,905.399C1563.78,905.075 1563.81,904.774 1563.81,904.497C1563.81,903.43 1563.59,902.602 1563.17,902.012C1562.75,901.422 1562.06,901.128 1561.12,901.128L1559.05,901.128L1559.05,907.737L1561.13,907.737ZM1557.88,900.126L1561.37,900.126C1562.55,900.126 1563.47,900.546 1564.12,901.385C1564.7,902.143 1565,903.114 1565,904.297C1565,905.212 1564.82,906.038 1564.48,906.776C1563.87,908.081 1562.83,908.733 1561.36,908.733L1557.88,908.733L1557.88,900.126Z" style="fill:rgb(238,238,238);fill-rule:nonzero;"/>
        <path d="M1566.61,900.126L1572.88,900.126L1572.88,901.18L1567.74,901.18L1567.74,903.794L1572.5,903.794L1572.5,904.79L1567.74,904.79L1567.74,907.708L1572.97,907.708L1572.97,908.733L1566.61,908.733L1566.61,900.126Z" style="fill:rgb(238,238,238);fill-rule:nonzero;"/>
        <path d="M1578.73,900.315L1580.39,900.315L1580.39,902.051L1578.73,902.051L1578.73,900.315ZM1578.73,906.997L1580.39,906.997L1580.39,908.733L1578.73,908.733L1578.73,906.997Z" style="fill:rgb(238,238,238);fill-rule:nonzero;"/>
        <path d="M1583.26,900.315L1584.92,900.315L1584.92,902.051L1583.26,902.051L1583.26,900.315ZM1583.26,906.997L1584.92,906.997L1584.92,908.733L1583.26,908.733L1583.26,906.997Z" style="fill:rgb(238,238,238);fill-rule:nonzero;"/>
        <path d="M1587.79,900.315L1589.45,900.315L1589.45,902.051L1587.79,902.051L1587.79,900.315ZM1587.79,906.997L1589.45,906.997L1589.45,908.733L1587.79,908.733L1587.79,906.997Z" style="fill:rgb(238,238,238);fill-rule:nonzero;"/>
        <path d="M1592.32,900.315L1593.99,900.315L1593.99,902.051L1592.32,902.051L1592.32,900.315ZM1592.32,906.997L1593.99,906.997L1593.99,908.733L1592.32,908.733L1592.32,906.997Z" style="fill:rgb(238,238,238);fill-rule:nonzero;"/>
        <path d="M1596.85,900.315L1598.52,900.315L1598.52,902.051L1596.85,902.051L1596.85,900.315ZM1596.85,906.997L1598.52,906.997L1598.52,908.733L1596.85,908.733L1596.85,906.997Z" style="fill:rgb(238,238,238);fill-rule:nonzero;"/>
    </g>
    <defs>
        <linearGradient id="_Linear1" x1="0" y1="0" x2="1" y2="0" gradientUnits="userSpaceOnUse" gradientTransform="matrix(593.57,139.46,-139.46,593.57,284.13,124.1)"><stop offset="0" style="stop-color:rgb(243,243,243);stop-opacity:1"/><stop offset="1" style="stop-color:rgb(253,253,253);stop-opacity:1"/></linearGradient>
        <linearGradient id="_Linear2" x1="0" y1="0" x2="1" y2="0" gradientUnits="userSpaceOnUse" gradientTransform="matrix(1110.56,-233.08,233.08,1110.56,855.49,465.13)"><stop offset="0" style="stop-color:rgb(244,244,244);stop-opacity:1"/><stop offset="0.53" style="stop-color:rgb(244,244,244);stop-opacity:1"/><stop offset="0.83" style="stop-color:rgb(242,242,242);stop-opacity:1"/><stop offset="1" style="stop-color:rgb(242,242,242);stop-opacity:1"/></linearGradient>
        <linearGradient id="_Linear3" x1="0" y1="0" x2="1" y2="0" gradientUnits="userSpaceOnUse" gradientTransform="matrix(474.45,552.19,-552.19,474.45,118.65,417.06)"><stop offset="0" style="stop-color:rgb(228,228,228);stop-opacity:1"/><stop offset="0.43" style="stop-color:rgb(241,241,241);stop-opacity:1"/><stop offset="1" style="stop-color:rgb(241,241,241);stop-opacity:1"/></linearGradient>
    </defs>
</svg>
